<svg xmlns="http://www.w3.org/2000/svg" width="22" height="25.818" viewBox="0 0 22 25.818"><defs><style>.a{fill:#4c4e56;}</style></defs><path class="a" d="M6.288-2.754H-5.348v-8.424a5.611,5.611,0,0,1,1.7-4.121A5.611,5.611,0,0,1,.47-17a5.611,5.611,0,0,1,4.121,1.7,5.611,5.611,0,0,1,1.7,4.121ZM8.894-4.088v-7.091a8.153,8.153,0,0,0-1.818-5.242,8.209,8.209,0,0,0-4.667-2.939v-.848A1.888,1.888,0,0,0,1.864-21.6,1.85,1.85,0,0,0,.5-22.148,1.953,1.953,0,0,0-.894-21.6a1.836,1.836,0,0,0-.576,1.394v.848a8.194,8.194,0,0,0-4.606,2.939,8.153,8.153,0,0,0-1.818,5.242v7.091L-10.5-1.482V-.209h22V-1.482ZM.47,3.67a2.515,2.515,0,0,0,1.848-.758,2.445,2.445,0,0,0,.758-1.788H-2.076a2.445,2.445,0,0,0,.758,1.788A2.445,2.445,0,0,0,.47,3.67Z" transform="translate(10.5 22.148)"/></svg>