<svg xmlns="http://www.w3.org/2000/svg" width="24" height="24" viewBox="0 0 24 24"><defs><style>.a{fill:#4c4e56;}</style></defs><path class="a" d="M-13.648-22.148a12.122,12.122,0,0,0-4.592.9,11.685,11.685,0,0,0-3.915,2.592,11.685,11.685,0,0,0-2.592,3.915,12.122,12.122,0,0,0-.9,4.592,12.122,12.122,0,0,0,.9,4.592,11.685,11.685,0,0,0,2.592,3.915A11.685,11.685,0,0,0-18.24.95a12.122,12.122,0,0,0,4.592.9A12.122,12.122,0,0,0-9.057.95,11.685,11.685,0,0,0-5.141-1.641,11.685,11.685,0,0,0-2.55-5.557a12.122,12.122,0,0,0,.9-4.592,12.122,12.122,0,0,0-.9-4.592,11.685,11.685,0,0,0-2.592-3.915,11.685,11.685,0,0,0-3.915-2.592A12.122,12.122,0,0,0-13.648-22.148ZM-19.564-2.6a4,4,0,0,1,2.282-1.465,10.758,10.758,0,0,1,3.634-.676,10.758,10.758,0,0,1,3.634.676A4,4,0,0,1-7.733-2.6,9.179,9.179,0,0,1-13.648-.515,9.179,9.179,0,0,1-19.564-2.6ZM-5.986-4.346a7.772,7.772,0,0,0-3.831-2.2,13.528,13.528,0,0,0-3.831-.62,13.528,13.528,0,0,0-3.831.62,7.772,7.772,0,0,0-3.831,2.2,9.347,9.347,0,0,1-1.972-5.8,9.408,9.408,0,0,1,1.3-4.817,9.6,9.6,0,0,1,3.521-3.521,9.408,9.408,0,0,1,4.817-1.3,9.408,9.408,0,0,1,4.817,1.3A9.6,9.6,0,0,1-5.31-14.965a9.408,9.408,0,0,1,1.3,4.817A9.347,9.347,0,0,1-5.986-4.346ZM-13.648-17.36a4.07,4.07,0,0,0-2.986,1.239,4.07,4.07,0,0,0-1.239,2.986,3.978,3.978,0,0,0,1.239,2.958,4.118,4.118,0,0,0,2.986,1.211,4.118,4.118,0,0,0,2.986-1.211,3.978,3.978,0,0,0,1.239-2.958,4.07,4.07,0,0,0-1.239-2.986A4.07,4.07,0,0,0-13.648-17.36Zm0,6.028a1.733,1.733,0,0,1-1.268-.535,1.765,1.765,0,0,1-.535-1.3,1.674,1.674,0,0,1,.535-1.268,1.781,1.781,0,0,1,1.268-.507,1.781,1.781,0,0,1,1.268.507,1.674,1.674,0,0,1,.535,1.268,1.765,1.765,0,0,1-.535,1.3A1.733,1.733,0,0,1-13.648-11.332Z" transform="translate(25.648 22.148)"/></svg>