<svg xmlns="http://www.w3.org/2000/svg" width="198" height="120" viewBox="0 0 198 120"><defs><style>.a{fill:#fae6e9;}.b{fill:#fff;}.c{fill:#d4d4d4;}.d{fill:#ececec;}.e{fill:#c8102e;}.f{fill:#ffb8b8;}.g{fill:#363054;}.h{fill:#ccc;}</style></defs><g transform="translate(-9047 -1948)"><path class="a" d="M819,581.539a11.843,11.843,0,0,1-4.249-10.209,9.574,9.574,0,0,1,7.117-8.128,8.058,8.058,0,0,1,9.176,5.1c.628-7.072,1.351-14.44,5.111-20.463a21.671,21.671,0,0,1,15.692-10.053,19.444,19.444,0,0,1,17.105,6.983,17.647,17.647,0,0,1,2.17,18.168c-2.057,4.266-5.845,7.441-9.815,10.024a63.341,63.341,0,0,1-43.322,9.477Z" transform="translate(8372.281 1484.922)"/><path class="b" d="M910.729,545.6a104.515,104.515,0,0,0-30.71,41.526c-.293.718.873,1.03,1.162.32a103.352,103.352,0,0,1,30.4-40.994c.6-.49-.255-1.338-.852-.852Z" transform="translate(8324.19 1479.189)"/><path class="a" d="M238.777,533.173a16.266,16.266,0,0,0,5.836-14.022c-.642-5.237-4.618-10.051-9.776-11.163s-11.037,1.966-12.6,7c-.862-9.714-1.856-19.834-7.02-28.106a29.765,29.765,0,0,0-21.553-13.808,26.706,26.706,0,0,0-23.494,9.591,24.238,24.238,0,0,0-2.981,24.954c2.824,5.859,8.028,10.22,13.48,13.768a87,87,0,0,0,59.5,13.017" transform="translate(8882 1532.614)"/><path class="b" d="M213.506,483.815a142.342,142.342,0,0,1,19.837,19.7,142.759,142.759,0,0,1,22.343,37.337c.4.986-1.2,1.415-1.6.44a141.956,141.956,0,0,0-41.754-56.3c-.827-.673.351-1.838,1.171-1.171Z" transform="translate(8847.341 1524.741)"/><path class="c" d="M520.651,309.641H424.5V223.261c0-18.378,17.076-33.33,38.065-33.33h20.021c20.989,0,38.065,14.952,38.065,33.33Z" transform="translate(8674.837 1758.069)"/><path class="d" d="M500.63,307.9H424.5v-85.12a29.7,29.7,0,0,1,7.269-19.307c.175-.206.349-.409.529-.609a36.155,36.155,0,0,1,8.1-6.785c.174-.109.348-.216.525-.324a40.411,40.411,0,0,1,8.291-3.741c.174-.057.351-.114.529-.169a43.054,43.054,0,0,1,8.195-1.667c.173-.02.351-.036.529-.052a44.635,44.635,0,0,1,8.194,0c.177.016.355.032.531.053a43.047,43.047,0,0,1,8.193,1.667c.177.055.355.112.529.169a40.329,40.329,0,0,1,8.194,3.686c.177.1.354.212.528.319a37.622,37.622,0,0,1,4.843,3.538,34.835,34.835,0,0,1,3.352,3.307c.179.2.354.4.528.608a29.7,29.7,0,0,1,7.27,19.307Z" transform="translate(8676.934 1759.813)"/><circle class="e" cx="4.215" cy="4.215" r="4.215" transform="translate(9162.145 2021.032)"/><path class="f" d="M581.272,472.952h-3.23l-1.537-12.457h4.767Z" transform="translate(8601.262 1591.804)"/><path class="g" d="M562.617,504.28h6.228V508.2H558.7a3.922,3.922,0,0,1,3.922-3.922Z" transform="translate(8614.529 1559.553)"/><path class="f" d="M642.272,472.952h-3.23l-1.537-12.457h4.767Z" transform="translate(8554.096 1591.804)"/><path class="g" d="M623.617,504.28h6.228V508.2H619.7A3.922,3.922,0,0,1,623.617,504.28Z" transform="translate(8567.31 1559.553)"/><path class="f" d="M696.732,432.322a2.83,2.83,0,0,1,1.188-4.173L708.9,397.89l5.4,2.948-12.535,28.917a2.845,2.845,0,0,1-5.034,2.568Z" transform="translate(8470.031 1595.696)"/><path class="f" d="M802.7,448.739a2.83,2.83,0,0,1-.762-4.272l-3.4-32.009,6.148.281,1.413,31.485a2.845,2.845,0,0,1-3.4,4.515Z" transform="translate(8391.782 1584.225)"/><circle class="f" cx="6.47" cy="6.47" r="6.47" transform="translate(9179.457 1979.27)"/><path class="e" d="M759.639,421.731H740.133l.023-.152c.035-.227,3.476-22.77.938-30.146a3.112,3.112,0,0,1,1.6-3.842h0c3.628-1.708,10.592-3.812,16.469,1.293a7.438,7.438,0,0,1,2.492,6.163Z" transform="translate(8435.62 1605.202)"/><path class="e" d="M729.8,408.189l-8.782-1.782,4.116-9.755a3.687,3.687,0,1,1,7.14,1.843Z" transform="translate(8451.484 1600.394)"/><path class="e" d="M795.372,413.406l-.528-12.1a3.72,3.72,0,1,1,7.267-1.258l1.984,11.308Z" transform="translate(8394.599 1598.225)"/><path class="g" d="M756.052,517.049c3.139,11.953,3.481,27.151,2.634,43.729l-4.215-.527-7.639-31.611-4.215,32.138-4.742-.263c-1.417-17.394-2.8-32.326-.527-42.148Z" transform="translate(8438.564 1500.115)"/><path class="g" d="M759.649,330.625a2.09,2.09,0,0,1-3.606-1.161,2.118,2.118,0,0,1,0-.41,9.495,9.495,0,0,0,.423-2.306,1.209,1.209,0,0,0-.221-.566c-.962-1.288-3.22.576-4.128-.59-.557-.715.1-1.841-.329-2.64-.564-1.055-2.234-.534-3.281-1.112-1.165-.643-1.1-2.43-.328-3.517a5.533,5.533,0,0,1,4.195-2.135,11.252,11.252,0,0,1,4.74.925,9.473,9.473,0,0,1,4.478,3.105,7.581,7.581,0,0,1,.766,6.454A12.166,12.166,0,0,1,759.649,330.625Z" transform="translate(8430.503 1660.442)"/><path class="g" d="M429.164,707.82H265.759a.318.318,0,0,1,0-.627H429.164a.318.318,0,0,1,0,.627Z" transform="translate(8807.978 1360.06)"/><path class="b" d="M533.458,360.241H499.212a1.561,1.561,0,0,1-1.712-1.33V298.76a1.561,1.561,0,0,1,1.712-1.33h34.246a1.561,1.561,0,0,1,1.712,1.33v60.15A1.561,1.561,0,0,1,533.458,360.241Z" transform="translate(8622.829 1678.888)"/><rect class="h" width="37.67" height="0.527" transform="translate(9120.329 1994.44)"/><rect class="h" width="37.67" height="0.527" transform="translate(9120.438 2020.754)"/><rect class="h" width="0.527" height="63.074" transform="translate(9132.883 1976.318)"/><rect class="h" width="0.527" height="63.074" transform="translate(9144.258 1976.318)"/></g></svg>