<svg width="120" height="120" version="1.1" id="Layer_1" xmlns="http://www.w3.org/2000/svg" xmlns:xlink="http://www.w3.org/1999/xlink" x="0px" y="0px"
		 viewBox="0 0 73.83 73.61" style="enable-background:new 0 0 73.83 73.61;" xml:space="preserve">
	<path fill="#ffffff" d="M37.27,55.19c-2.36,0-4.66-0.43-6.83-1.28c-0.08-0.03-0.18,0.01-0.21,0.09L23.39,70.9
		c-0.02,0.04-0.01,0.09,0,0.13c0.02,0.04,0.05,0.07,0.09,0.09c4.26,1.66,8.76,2.5,13.38,2.5c0.14,0,0.27,0,0.41,0
		c0.09,0,0.16-0.08,0.16-0.17V55.36C37.43,55.26,37.36,55.19,37.27,55.19">
		<animate
		  attributeName="opacity"
		  dur="1.5s"
		  values="0;1;0"
		  repeatCount="indefinite"
		  begin="0.1"/> 
	</path>
	<path fill="#ffffff" d="M27.89,52.75c-0.01-0.04-0.04-0.08-0.08-0.1c-1.72-1-3.26-2.26-4.59-3.75c-0.06-0.07-0.17-0.08-0.24-0.01
		L9.19,60.91c-0.03,0.03-0.05,0.07-0.06,0.12c0,0.04,0.01,0.09,0.04,0.12c2.63,2.96,5.69,5.47,9.09,7.46
		c0.03,0.01,0.06,0.02,0.09,0.02c0.06,0,0.11-0.03,0.14-0.08l9.37-15.67C27.9,52.84,27.9,52.79,27.89,52.75">
		<animate
		  attributeName="opacity"
		  dur="1.5s"
		  values="0;1;0"
		  repeatCount="indefinite"
		  begin="0.2"/> 
	</path>
	<path fill="#ffffff" d="M20.9,45.9c0.01-0.04,0.01-0.09-0.01-0.13c-0.82-1.45-1.45-2.99-1.85-4.58c-0.02-0.09-0.12-0.14-0.2-0.12
		L1.05,45.51c-0.09,0.02-0.14,0.11-0.12,0.2c0.8,3.21,2.02,6.28,3.63,9.15c0.03,0.06,0.09,0.09,0.15,0.09c0.03,0,0.06-0.01,0.08-0.02
		L20.82,46C20.86,45.98,20.89,45.95,20.9,45.9">
		<animate
		  attributeName="opacity"
		  dur="1.5s"
		  values="0;1;0"
		  repeatCount="indefinite"
		  begin="0.3"/> 
	</path>
	<path fill="#ffffff" d="M18.33,35.06c0.04,0,0.08-0.01,0.11-0.04c0.03-0.03,0.05-0.07,0.06-0.12c0.11-1.39,0.38-2.77,0.79-4.09
		c0.03-0.09-0.02-0.18-0.11-0.21l-17.31-5.5c-0.09-0.03-0.18,0.02-0.21,0.11C0.81,27.83,0.25,30.54,0,33.28
		c0,0.05,0.01,0.09,0.04,0.12c0.03,0.03,0.07,0.06,0.11,0.06l18.16,1.6C18.32,35.06,18.33,35.06,18.33,35.06">
		<animate
		  attributeName="opacity"
		  dur="1.5s"
		  values="0;1;0"
		  repeatCount="indefinite"
		  begin="0.4"/> 
	</path>
	<path fill="#ffffff" d="M22.84,24.08c0.03,0.03,0.07,0.04,0.11,0.04c0,0,0.01,0,0.01,0c0.04,0,0.08-0.02,0.11-0.06
		c0.78-0.89,1.64-1.71,2.57-2.45c0.03-0.03,0.06-0.07,0.06-0.11c0-0.04-0.01-0.09-0.04-0.12c-2.91-3.67-9.7-12.23-11.11-14.02
		c-0.06-0.07-0.16-0.09-0.23-0.03c-1.83,1.41-3.53,2.99-5.06,4.69c-0.03,0.03-0.04,0.08-0.04,0.12c0,0.04,0.02,0.09,0.06,0.12
		L22.84,24.08z">
		<animate
		  attributeName="opacity"
		  dur="1.5s"
		  values="0;1;0"
		  repeatCount="indefinite"
		  begin="0.5"/> 
	</path>
	<path fill="#ffffff" d="M40.18,0.08c-1.95-0.11-3.95-0.11-5.93,0c-0.05,0-0.1,0.02-0.14,0.06c-0.03,0.03-0.05,0.08-0.05,0.12l1.6,17.34
		c0.01,0.09,0.1,0.16,0.21,0.16c1.01-0.06,2.05-0.06,3.08,0.01c0.05,0,0.11-0.01,0.15-0.04c0,0,0,0,0,0
		c0.04-0.03,0.06-0.07,0.06-0.11l1.2-17.34C40.37,0.17,40.29,0.09,40.18,0.08">
		<animate
		  attributeName="opacity"
		  dur="1.5s"
		  values="0;1;0"
		  repeatCount="indefinite"
		  begin="0.6"/> 
	</path>
	<path fill="#ffffff" d="M50.86,23.34c0.03,0.03,0.07,0.05,0.12,0.05h0c0.04,0,0.09-0.02,0.12-0.05l12.37-12.13
		c0.07-0.06,0.07-0.17,0-0.24c-1.13-1.17-2.36-2.28-3.66-3.32c-0.04-0.03-0.08-0.04-0.13-0.03c-0.04,0-0.08,0.03-0.11,0.06
		L48.93,21.38c-0.06,0.07-0.04,0.18,0.03,0.23C49.63,22.13,50.27,22.71,50.86,23.34">
		<animate
		  attributeName="opacity"
		  dur="1.5s"
		  values="0;1;0"
		  repeatCount="indefinite"
		  begin="0.7"/> 
	</path>
	<path fill="#ffffff" d="M73.71,33.66c-0.01-0.09-0.09-0.16-0.18-0.15L56.2,34.85c-0.09,0.01-0.16,0.09-0.16,0.18
		c0.03,0.45,0.05,0.89,0.05,1.33c0,0.26-0.01,0.54-0.02,0.87c0,0.04,0.01,0.09,0.04,0.12c0.03,0.03,0.07,0.05,0.12,0.05l17.4,0.68
		c0,0,0,0,0,0c0.04,0,0.08-0.01,0.11-0.04c0.03-0.03,0.05-0.07,0.05-0.12c0.01-0.43,0.02-0.86,0.02-1.29
		C73.83,35.65,73.8,34.64,73.71,33.66">
		<animate
		  attributeName="opacity"
		  dur="1.5s"
		  values="0;1;0"
		  repeatCount="indefinite"
		  begin="0.8"/> 
	</path>
	<path fill="#ffffff" d="M51.71,48.7c-0.07-0.06-0.17-0.05-0.24,0.01c-0.44,0.5-0.88,0.96-1.33,1.38c-0.03,0.03-0.05,0.07-0.05,0.12
		c0,0.04,0.01,0.09,0.04,0.12l12.1,12.97c0.03,0.03,0.07,0.05,0.12,0.05h0c0.04,0,0.08-0.01,0.12-0.04c0.89-0.86,1.76-1.78,2.58-2.74
		c0.06-0.07,0.05-0.17-0.02-0.23L51.71,48.7z">
		<animate
		  attributeName="opacity"
		  dur="1.5s"
		  values="0;1;0"
		  repeatCount="indefinite"
		  begin="0.9"/> 
	</path>
</svg>