<svg xmlns="http://www.w3.org/2000/svg" width="15" height="15" viewBox="0 0 15 15"><defs><style>.a{fill:#fff;}</style></defs><path class="a" d="M-7.156-12.656a7.576,7.576,0,0,0-2.87.563,7.3,7.3,0,0,0-2.447,1.62,7.3,7.3,0,0,0-1.62,2.447,7.576,7.576,0,0,0-.563,2.87,7.576,7.576,0,0,0,.563,2.87A7.3,7.3,0,0,0-12.473.161a7.3,7.3,0,0,0,2.447,1.62,7.576,7.576,0,0,0,2.87.563,7.576,7.576,0,0,0,2.87-.563A7.3,7.3,0,0,0-1.839.161,7.3,7.3,0,0,0-.22-2.287a7.576,7.576,0,0,0,.563-2.87H-1.135a5.88,5.88,0,0,1-.81,3.011,6,6,0,0,1-2.2,2.2,5.88,5.88,0,0,1-3.011.81,5.88,5.88,0,0,1-3.011-.81,6,6,0,0,1-2.2-2.2,5.88,5.88,0,0,1-.81-3.011,5.88,5.88,0,0,1,.81-3.011,6,6,0,0,1,2.2-2.2,5.88,5.88,0,0,1,3.011-.81Zm5.106.739a.606.606,0,0,0-.387.141l-.915.915,1.9,1.866.915-.88A.606.606,0,0,0-.4-10.262a.478.478,0,0,0-.141-.352L-1.7-11.776A.564.564,0,0,0-2.051-11.917Zm-1.831,1.585L-9.41-4.769V-2.9h1.866L-1.98-8.431Z" transform="translate(14.656 12.656)"/></svg>