<svg xmlns="http://www.w3.org/2000/svg" width="22" height="20.938" viewBox="0 0 22 20.938"><defs><style>.a{fill:#111;opacity:0.8;}</style></defs><path class="a" d="M645.123,252.2a12.492,12.492,0,0,0-3.54,1.416,2.977,2.977,0,0,0-1.568,2.428v3.237h8.6a7.278,7.278,0,0,1-.859-2.074h-5.715v-1.163q0-.353.86-.834a12.2,12.2,0,0,1,2.074-.885,13.885,13.885,0,0,1,2.782-.506,8,8,0,0,1,.859-2.124,13.857,13.857,0,0,0-3.49.506Zm.455-8.952a4.324,4.324,0,0,0,3.035,7.384l1.011-.1a6.689,6.689,0,0,1,2.428-1.568,4.294,4.294,0,0,0,.91-2.63,4.317,4.317,0,0,0-4.349-4.35A4.14,4.14,0,0,0,645.578,243.249Zm4.653,1.467a2.251,2.251,0,1,1-3.186,0,2.141,2.141,0,0,1,1.568-.658A2.2,2.2,0,0,1,650.232,244.715Zm.91,7.333a4.855,4.855,0,0,0,3.439,8.294,4.542,4.542,0,0,0,2.529-.759l3.388,3.338,1.517-1.517-3.338-3.338a4.621,4.621,0,0,0,.759-2.579,4.864,4.864,0,0,0-8.294-3.439Zm5.336,1.543a2.681,2.681,0,0,1-1.9,4.577,2.664,2.664,0,0,1-1.922-.784,2.627,2.627,0,0,1,0-3.793,2.668,2.668,0,0,1,1.922-.784A2.586,2.586,0,0,1,656.477,253.591Z" transform="translate(-640.015 -241.984)"/></svg>