<svg xmlns="http://www.w3.org/2000/svg" width="17" height="17" viewBox="0 0 17 17"><defs><style>.a{fill:#111;opacity:0.8;}</style></defs><path class="a" d="M356.769,243.093a6.325,6.325,0,1,0,7.293,10.278l.273.273v.775l4.831,4.831,1.458-1.459-4.831-4.831h-.775l-.273-.273a6.166,6.166,0,0,0,1.5-4.1,6.292,6.292,0,0,0-3.145-5.492,6.184,6.184,0,0,0-3.145-.843A6.266,6.266,0,0,0,356.769,243.093Zm6.29,2.393a4.4,4.4,0,1,1-3.1-1.276A4.223,4.223,0,0,1,363.059,245.486Z" transform="translate(-353.625 -242.25)"/></svg>