<svg xmlns="http://www.w3.org/2000/svg" width="22" height="18.305" viewBox="0 0 22 18.305"><defs><style>.a{fill:#414141;}</style></defs><path class="a" d="M3.652-15.332H5.5v11H3.652Zm2.75,0h.945v11H6.4Zm1.848,0H11v11H8.25Zm3.652,0h.945v11H11.9Zm2.75,0H16.5v11H14.652Zm2.75,0h.945v11H17.4ZM1.848-17.18v3.7H0v-3.7a1.734,1.734,0,0,1,.537-1.268,1.783,1.783,0,0,1,1.311-.537H5.5v1.8Zm18.3-1.8a1.783,1.783,0,0,1,1.311.537A1.734,1.734,0,0,1,22-17.18v3.7H20.152v-3.7H16.5v-1.8ZM1.848-6.18v3.7H5.5v1.8H1.848A1.783,1.783,0,0,1,.537-1.217,1.734,1.734,0,0,1,0-2.484v-3.7Zm18.3,3.7v-3.7H22v3.7a1.734,1.734,0,0,1-.537,1.268,1.783,1.783,0,0,1-1.311.537H16.5v-1.8Z" transform="translate(0 18.984)"/></svg>