<svg xmlns="http://www.w3.org/2000/svg" width="40" height="39.88" viewBox="0 0 40 39.88"><defs><style>.a{fill:#fff;fill-rule:evenodd;}</style></defs><g transform="translate(0 -0.347)"><g transform="translate(0 0.347)"><path class="a" d="M19.68,50.773a.1.1,0,0,0-.044-.059,10.614,10.614,0,0,1-2.609-2.13.1.1,0,0,0-.134-.009L9.05,55.414a.094.094,0,0,0-.032.066.092.092,0,0,0,.024.069,21.084,21.084,0,0,0,5.167,4.239.1.1,0,0,0,.048.013.093.093,0,0,0,.081-.046l5.331-8.909a.1.1,0,0,0,.01-.073" transform="translate(-3.822 -22.756)"/><g transform="translate(0 4.153)"><path class="a" d="M12.269,36.628a.1.1,0,0,0-.009-.072,10.712,10.712,0,0,1-1.053-2.606.1.1,0,0,0-.115-.07L.983,36.4a.1.1,0,0,0-.07.115,20.815,20.815,0,0,0,2.066,5.2.1.1,0,0,0,.083.049.092.092,0,0,0,.046-.013l9.115-5.072a.094.094,0,0,0,.046-.058" transform="translate(-0.386 -15.953)"/><path class="a" d="M10.422,23.788a.093.093,0,0,0,.1-.088,10.735,10.735,0,0,1,.451-2.325.1.1,0,0,0-.062-.12L1.065,18.132a.094.094,0,0,0-.119.06A20.8,20.8,0,0,0,0,22.777a.1.1,0,0,0,.022.07.094.094,0,0,0,.065.035l10.328.906h.008" transform="translate(0 -8.628)"/><path class="a" d="M16.85,10.094a.1.1,0,0,0,.063.024h.006a.1.1,0,0,0,.065-.033A10.6,10.6,0,0,1,18.447,8.7a.1.1,0,0,0,.036-.065.1.1,0,0,0-.02-.069C16.807,6.474,12.945,1.6,12.146.591a.1.1,0,0,0-.133-.017A21.329,21.329,0,0,0,9.137,3.242a.1.1,0,0,0-.024.07.1.1,0,0,0,.032.066l7.7,6.716" transform="translate(-3.863 -0.555)"/><path class="a" d="M30.97,47.279a10.612,10.612,0,0,1-3.883-.726.1.1,0,0,0-.124.054l-3.883,9.6a.094.094,0,0,0,0,.074.1.1,0,0,0,.052.051,20.934,20.934,0,0,0,7.608,1.418c.078,0,.157,0,.232,0a.094.094,0,0,0,.092-.094V47.374a.094.094,0,0,0-.094-.1" transform="translate(-9.78 -22.026)"/></g><path class="a" d="M49.377,16.8a.1.1,0,0,0,.067.03h0a.1.1,0,0,0,.067-.028l7.033-6.9a.1.1,0,0,0,0-.134,21.622,21.622,0,0,0-2.079-1.885.1.1,0,0,0-.071-.02.094.094,0,0,0-.063.036l-6.052,7.783a.1.1,0,0,0,.016.133,10.5,10.5,0,0,1,1.079.982" transform="translate(-22.439 -3.535)"/><path class="a" d="M65.361,33.507a.094.094,0,0,0-.1-.087l-9.856.764a.093.093,0,0,0-.087.1c.018.252.026.507.026.755,0,.15,0,.306-.012.495a.1.1,0,0,0,.025.069.1.1,0,0,0,.066.031l9.9.39h0A.093.093,0,0,0,65.385,36a.1.1,0,0,0,.03-.066c.01-.244.014-.49.014-.732,0-.567-.022-1.136-.068-1.694" transform="translate(-25.429 -15.325)"/><g transform="translate(17.384)"><path class="a" d="M17.362,48.395a.1.1,0,0,0-.134.008,10.8,10.8,0,0,1-.755.783.1.1,0,0,0-.005.134l6.879,7.373a.089.089,0,0,0,.067.03h0a.093.093,0,0,0,.066-.025,21.359,21.359,0,0,0,1.465-1.558.094.094,0,0,0-.01-.133l-7.575-6.612" transform="translate(-7.323 -22.679)"/><path class="a" d="M4.093.393a30.936,30.936,0,0,0-3.374,0A.121.121,0,0,0,.641.423a.091.091,0,0,0-.028.07l.91,9.86a.11.11,0,0,0,.123.088,15.185,15.185,0,0,1,1.751,0,.125.125,0,0,0,.085-.024h0a.091.091,0,0,0,.037-.065L4.2.495a.1.1,0,0,0-.107-.1" transform="translate(-0.613 -0.347)"/></g></g></g></svg>