<svg xmlns="http://www.w3.org/2000/svg" width="172.305" height="41.855" viewBox="0 0 172.305 41.855"><defs><style>.a{fill:#fff;fill-rule:evenodd;}</style></defs><g transform="translate(0 -0.347)"><g transform="translate(0 0.347)"><path class="a" d="M91.281,38.532h1.843c3.535,0,5.526-.357,5.526-4.932,0-4.605-2.466-4.873-5.467-4.873h-1.9Zm0-10.459h1.9c2.377,0,4.843-.059,4.843-4.635,0-3.982-1.456-4.4-5.23-4.4H91.281Zm-5.17,10.459h2.5V19.041h-2.5v-.654H93.42c3,0,7.517.654,7.517,5.11,0,3.357-3.655,4.606-4.991,4.814v.059c1.841.148,5.734,1.248,5.734,5.2,0,5.2-4.932,5.616-7.755,5.616H86.111v-.654Z" transform="translate(-36.503 -7.994)"/><path class="a" d="M115.158,43.474h2.14V31.232h-2.407v-.654h2.139a13.21,13.21,0,0,0,2.407-.237v3.654h.06c.178-.92,1.486-3.951,4.011-3.951a1.905,1.905,0,0,1,2.05,1.841,1.484,1.484,0,0,1-1.307,1.6,1.207,1.207,0,0,1-1.368-1.307c0-.3.119-.536.119-.714,0-.237-.119-.3-.357-.3-1.633,0-3.09,3.535-3.09,6.328v5.972h2.228v.654h-6.626v-.654" transform="translate(-48.704 -12.936)"/><path class="a" d="M136.961,21.559a1.367,1.367,0,1,1,1.366,1.366,1.382,1.382,0,0,1-1.366-1.366M135.118,39.3h2.14V27.056h-2.407V26.4h2.139a14.689,14.689,0,0,0,2.526-.237V39.3h2.228v.654h-6.626V39.3" transform="translate(-57.165 -8.759)"/><path class="a" d="M154.325,38.129c2.614,0,2.674-1.308,2.674-3.893,0-2.11,0-3.714-2.585-3.714-2.7,0-2.7,1.724-2.7,3.714,0,2.11,0,3.893,2.614,3.893Zm-2.556,5.615a5.251,5.251,0,0,0-1.218,2.942c0,1.872,1.664,3.269,4.041,3.269,3.358,0,5.615-2.674,5.615-4.546,0-1.515-.594-2.11-1.9-2.11-.237,0-.744.089-1.07.089ZM157,41.189c.387,0,.861-.089,1.129-.089,2.051,0,3.09,1.456,3.09,3.507,0,3.179-2.644,6-6.952,6-2.644,0-5.318-1.218-5.318-3.923,0-1.367,1.575-2.585,2.2-2.971a2.915,2.915,0,0,1-2.317-3.031c0-1.664,1.812-2.585,2.941-2.734v-.06a3.95,3.95,0,0,1-2.436-3.655,5.125,5.125,0,0,1,8.794-2.763c.713-.831,1.248-1.842,2.466-1.842a1.178,1.178,0,0,1,1.278,1.248.955.955,0,0,1-1.041,1.01c-1.009,0-.921-.861-1.307-.861-.237,0-.684.594-.891.95a5.341,5.341,0,0,1,.743,2.258,4.725,4.725,0,0,1-4.784,4.546,5.7,5.7,0,0,1-2.02-.417c-.861.06-2.734.446-2.734,1.962,0,1.159.921,1.218,1.693,1.218.417,0,.921-.06,1.367-.09l4.1-.267Z" transform="translate(-63.09 -12.761)"/><path class="a" d="M172.666,38.357h2.14V18.866H172.4v-.654h2.139a14.676,14.676,0,0,0,2.526-.237V29.028h.059c.684-1.516,2.466-4.1,5.29-4.1,3.119,0,3.743,2.168,3.743,3.149V38.357h2.229v.654h-6.626v-.654h2.14V27.839c0-1.129-.059-2.258-1.842-2.258-1.872,0-4.992,2.585-4.992,6.3v6.477h2.051v.654h-6.448v-.654" transform="translate(-73.082 -7.82)"/><path class="a" d="M208.072,39.273a4.2,4.2,0,0,1-3.922,2.852c-2.7,0-2.763-1.574-2.763-3.922V28.7h-2.17v-.654h2.17V24.417a3.289,3.289,0,0,0,.5.06,4.607,4.607,0,0,0,1.754-.417v3.981h3.535V28.7h-3.535V38.769c0,1.93.534,2.228,1.6,2.228,1.338,0,1.9-1.366,2.349-1.96l.475.237" transform="translate(-84.451 -10.399)"/><path class="a" d="M215.98,39.076h.535c.239,1.218,1.07,4.932,4.4,4.932a3.091,3.091,0,0,0,3.268-3.06c0-2.764-3.922-2.616-5.587-3.18-1.841-.595-2.584-1.574-2.584-3.893a3.985,3.985,0,0,1,3.982-3.832,3.578,3.578,0,0,1,2.852,1.218l.744-.8h.445v3.773H223.5c-.327-.921-.951-3.536-3.506-3.536a2.747,2.747,0,0,0-2.913,2.7c0,1.96,2.407,1.9,4.16,2.317s4.011,1.1,4.011,4.1c0,2.585-1.456,4.843-4.427,4.843a4.624,4.624,0,0,1-3.447-1.516l-.95.98h-.446V39.076" transform="translate(-91.557 -12.936)"/><path class="a" d="M241.132,39.273a4.2,4.2,0,0,1-3.922,2.852c-2.7,0-2.763-1.574-2.763-3.922V28.7h-2.169v-.654h2.169V24.417a3.305,3.305,0,0,0,.5.06,4.607,4.607,0,0,0,1.754-.417v3.981h3.535V28.7h-3.535V38.769c0,1.93.535,2.228,1.6,2.228,1.338,0,1.9-1.366,2.348-1.96l.475.237" transform="translate(-98.466 -10.399)"/><path class="a" d="M256.855,36.937c-1.9.059-5.437.624-5.437,3.625,0,1.723.772,2.971,2.288,2.971a3.428,3.428,0,0,0,2.615-1.932,6.2,6.2,0,0,0,.534-3.239Zm4.694,6.3a3.307,3.307,0,0,1-2.5,1.426c-1.724,0-2.17-1.693-2.2-2.674H256.8a4.9,4.9,0,0,1-4.159,2.674,3.534,3.534,0,0,1-3.6-3.654c0-4.1,6.21-4.606,7.814-4.725V33.549c0-1.9,0-2.852-1.9-2.852-1.456,0-2.852.505-2.852,1.337,0,.564.654.564.654,1.485a1.261,1.261,0,0,1-1.4,1.248c-.831,0-1.277-.565-1.277-1.486,0-1.6,2.02-3.238,5.051-3.238a7.918,7.918,0,0,1,2.674.5c.921.476,1.307.594,1.307,2.734v7.666c0,.98,0,2.585.773,2.585a1.745,1.745,0,0,0,1.248-.684l.415.387Z" transform="translate(-105.572 -12.936)"/><path class="a" d="M272.053,43.474h2.139V31.232h-2.406v-.654h2.139a13.21,13.21,0,0,0,2.407-.237v3.654h.06c.177-.92,1.485-3.951,4.01-3.951a1.906,1.906,0,0,1,2.05,1.841,1.484,1.484,0,0,1-1.307,1.6,1.207,1.207,0,0,1-1.367-1.307c0-.3.119-.536.119-.714,0-.237-.119-.3-.357-.3-1.634,0-3.091,3.535-3.091,6.328v5.972h2.229v.654h-6.626v-.654" transform="translate(-115.214 -12.936)"/><path class="a" d="M19.68,50.773a.1.1,0,0,0-.044-.059,10.614,10.614,0,0,1-2.609-2.13.1.1,0,0,0-.134-.009L9.05,55.414a.094.094,0,0,0-.032.066.092.092,0,0,0,.024.069,21.084,21.084,0,0,0,5.167,4.239.1.1,0,0,0,.048.013.093.093,0,0,0,.081-.046l5.331-8.909a.1.1,0,0,0,.01-.073" transform="translate(-3.822 -20.782)"/><g transform="translate(0 4.153)"><path class="a" d="M12.269,36.628a.1.1,0,0,0-.009-.072,10.712,10.712,0,0,1-1.053-2.606.1.1,0,0,0-.115-.07L.983,36.4a.1.1,0,0,0-.07.115,20.815,20.815,0,0,0,2.066,5.2.1.1,0,0,0,.083.049.092.092,0,0,0,.046-.013l9.115-5.072a.094.094,0,0,0,.046-.058" transform="translate(-0.386 -14.681)"/><path class="a" d="M10.422,23.788a.093.093,0,0,0,.1-.088,10.735,10.735,0,0,1,.451-2.325.1.1,0,0,0-.062-.12L1.065,18.132a.094.094,0,0,0-.119.06A20.8,20.8,0,0,0,0,22.777a.1.1,0,0,0,.022.07.094.094,0,0,0,.065.035l10.328.906h.008" transform="translate(0 -8.004)"/><path class="a" d="M16.85,10.094a.1.1,0,0,0,.063.024h.006a.1.1,0,0,0,.065-.033A10.6,10.6,0,0,1,18.447,8.7a.1.1,0,0,0,.036-.065.1.1,0,0,0-.02-.069C16.807,6.474,12.945,1.6,12.146.591a.1.1,0,0,0-.133-.017A21.329,21.329,0,0,0,9.137,3.242a.1.1,0,0,0-.024.07.1.1,0,0,0,.032.066l7.7,6.716" transform="translate(-3.863 -0.555)"/><path class="a" d="M30.97,47.279a10.612,10.612,0,0,1-3.883-.726.1.1,0,0,0-.124.054l-3.883,9.6a.094.094,0,0,0,0,.074.1.1,0,0,0,.052.051,20.934,20.934,0,0,0,7.608,1.418c.078,0,.157,0,.232,0a.094.094,0,0,0,.092-.094V47.374a.094.094,0,0,0-.094-.1" transform="translate(-9.78 -20.051)"/></g><path class="a" d="M49.377,16.8a.1.1,0,0,0,.067.03h0a.1.1,0,0,0,.067-.028l7.033-6.9a.1.1,0,0,0,0-.134,21.622,21.622,0,0,0-2.079-1.885.1.1,0,0,0-.071-.02.094.094,0,0,0-.063.036l-6.052,7.783a.1.1,0,0,0,.016.133,10.5,10.5,0,0,1,1.079.982" transform="translate(-20.459 -3.535)"/><path class="a" d="M65.361,33.507a.094.094,0,0,0-.1-.087l-9.856.764a.093.093,0,0,0-.087.1c.018.252.026.507.026.755,0,.15,0,.306-.012.495a.1.1,0,0,0,.025.069.1.1,0,0,0,.066.031l9.9.39h0A.093.093,0,0,0,65.385,36a.1.1,0,0,0,.03-.066c.01-.244.014-.49.014-.732,0-.567-.022-1.136-.068-1.694" transform="translate(-23.449 -14.367)"/><g transform="translate(19.364)"><path class="a" d="M17.362,48.395a.1.1,0,0,0-.134.008,10.8,10.8,0,0,1-.755.783.1.1,0,0,0-.005.134l6.879,7.373a.089.089,0,0,0,.067.03h0a.093.093,0,0,0,.066-.025,21.359,21.359,0,0,0,1.465-1.558.094.094,0,0,0-.01-.133l-7.575-6.612" transform="translate(-7.323 -20.705)"/><path class="a" d="M4.093.393a30.936,30.936,0,0,0-3.374,0A.121.121,0,0,0,.641.423a.091.091,0,0,0-.028.07l.91,9.86a.11.11,0,0,0,.123.088,15.185,15.185,0,0,1,1.751,0,.125.125,0,0,0,.085-.024h0a.091.091,0,0,0,.037-.065L4.2.495a.1.1,0,0,0-.107-.1" transform="translate(-0.613 -0.347)"/></g><path class="a" d="M294.307,31.027v.658h.638a.486.486,0,0,0,.3-.081.311.311,0,0,0,.107-.261.271.271,0,0,0-.113-.235.612.612,0,0,0-.354-.081Zm-.258,1.78V30.789h.893a.813.813,0,0,1,.524.141.507.507,0,0,1,.171.418.523.523,0,0,1-.154.4.773.773,0,0,1-.476.173l.6.884h-.3l-.567-.884h-.441v.884Zm-.812-.99a1.477,1.477,0,1,0,.431-1.043A1.43,1.43,0,0,0,293.237,31.816Zm1.477,1.773a1.773,1.773,0,1,1,1.253-.519,1.706,1.706,0,0,1-1.253.519Z" transform="translate(-124.182 -12.936)"/></g></g></svg>