<svg xmlns="http://www.w3.org/2000/svg" viewBox="0 0 248.24 60.3"><defs><style>.a{fill:#fff;fill-rule:evenodd;}</style></defs><g transform="translate(0 -0.347)"><g transform="translate(0 0.347)"><path class="a" d="M93.559,47.41h2.655c5.094,0,7.962-.515,7.962-7.106,0-6.635-3.553-7.02-7.876-7.02H93.559Zm0-15.068H96.3c3.424,0,6.978-.085,6.978-6.678,0-5.737-2.1-6.335-7.534-6.335H93.559ZM86.111,47.41h3.6V19.329h-3.6v-.942H96.642c4.323,0,10.83.942,10.83,7.363,0,4.837-5.265,6.636-7.191,6.935v.085c2.653.213,8.261,1.8,8.261,7.491,0,7.49-7.105,8.091-11.172,8.091H86.111V47.41Z" transform="translate(-14.641 -3.414)"/><path class="a" d="M115.276,49.392h3.083V31.756h-3.468v-.942h3.082a19.032,19.032,0,0,0,3.468-.342v5.264h.086c.256-1.325,2.14-5.692,5.778-5.692a2.745,2.745,0,0,1,2.953,2.653,2.139,2.139,0,0,1-1.882,2.312,1.739,1.739,0,0,1-1.97-1.882c0-.43.172-.772.172-1.028,0-.342-.172-.427-.514-.427-2.353,0-4.452,5.094-4.452,9.117v8.6h3.21v.942h-9.545v-.942" transform="translate(-19.535 -5.396)"/><path class="a" d="M137.89,22.161a1.969,1.969,0,1,1,1.968,1.969,1.992,1.992,0,0,1-1.968-1.969m-2.654,25.556h3.083V30.081h-3.468v-.942h3.082a21.162,21.162,0,0,0,3.639-.342v18.92h3.209v.942h-9.545v-.942" transform="translate(-22.929 -3.721)"/><path class="a" d="M156.748,41.874c3.766,0,3.853-1.885,3.853-5.608,0-3.039,0-5.351-3.724-5.351-3.9,0-3.9,2.483-3.9,5.351,0,3.039,0,5.608,3.766,5.608Zm-3.682,8.09A7.565,7.565,0,0,0,151.31,54.2c0,2.7,2.4,4.709,5.822,4.709,4.838,0,8.09-3.853,8.09-6.55,0-2.183-.856-3.039-2.738-3.039-.342,0-1.072.129-1.542.129Zm7.534-3.681c.557,0,1.241-.129,1.626-.129,2.955,0,4.452,2.1,4.452,5.052,0,4.58-3.809,8.647-10.016,8.647-3.81,0-7.662-1.755-7.662-5.651,0-1.97,2.269-3.725,3.166-4.28a4.2,4.2,0,0,1-3.338-4.366c0-2.4,2.611-3.725,4.238-3.938v-.086a5.691,5.691,0,0,1-3.509-5.265c0-2.654,2.525-6.293,7.363-6.293a6.9,6.9,0,0,1,5.307,2.311c1.027-1.2,1.8-2.653,3.553-2.653a1.7,1.7,0,0,1,1.842,1.8,1.376,1.376,0,0,1-1.5,1.456c-1.454,0-1.327-1.241-1.882-1.241-.342,0-.985.856-1.284,1.369a7.7,7.7,0,0,1,1.07,3.253c0,4.324-3.981,6.55-6.892,6.55a8.219,8.219,0,0,1-2.911-.6c-1.241.086-3.938.643-3.938,2.826,0,1.669,1.327,1.755,2.439,1.755.6,0,1.327-.086,1.97-.129l5.908-.385Z" transform="translate(-25.305 -5.326)"/><path class="a" d="M172.784,47.34h3.083V19.259H172.4v-.942h3.082a21.144,21.144,0,0,0,3.639-.342V33.9h.085c.985-2.184,3.553-5.907,7.621-5.907,4.494,0,5.392,3.124,5.392,4.537V47.34h3.211v.942h-9.546V47.34h3.083V32.187c0-1.627-.085-3.253-2.654-3.253-2.7,0-7.192,3.724-7.192,9.075V47.34h2.955v.942h-9.29V47.34" transform="translate(-29.313 -3.344)"/><path class="a" d="M211.974,45.978c-.684,1.456-2.054,4.109-5.65,4.109-3.9,0-3.981-2.268-3.981-5.65v-13.7h-3.126V29.8h3.126V24.574a4.739,4.739,0,0,0,.727.086,6.638,6.638,0,0,0,2.527-.6V29.8h5.094v.943H205.6V45.251c0,2.781.769,3.209,2.31,3.209,1.927,0,2.741-1.969,3.384-2.824l.684.342" transform="translate(-33.873 -4.379)"/><path class="a" d="M215.98,43.057h.77c.344,1.755,1.542,7.106,6.337,7.106a4.453,4.453,0,0,0,4.708-4.409c0-3.982-5.65-3.769-8.049-4.581-2.653-.857-3.723-2.267-3.723-5.608a5.742,5.742,0,0,1,5.737-5.521,5.155,5.155,0,0,1,4.108,1.755l1.072-1.155h.641V36.08h-.77c-.471-1.327-1.37-5.094-5.05-5.094a3.958,3.958,0,0,0-4.2,3.9c0,2.824,3.468,2.739,5.994,3.338s5.778,1.585,5.778,5.909c0,3.724-2.1,6.977-6.378,6.977a6.663,6.663,0,0,1-4.966-2.184l-1.369,1.413h-.643V43.057" transform="translate(-36.723 -5.396)"/><path class="a" d="M245.035,45.978c-.684,1.456-2.054,4.109-5.65,4.109-3.9,0-3.981-2.268-3.981-5.65v-13.7h-3.125V29.8H235.4V24.574a4.761,4.761,0,0,0,.727.086,6.637,6.637,0,0,0,2.527-.6V29.8h5.094v.943h-5.094V45.251c0,2.781.77,3.209,2.311,3.209,1.927,0,2.74-1.969,3.383-2.824l.684.342" transform="translate(-39.494 -4.379)"/><path class="a" d="M260.3,39.975c-2.74.085-7.833.9-7.833,5.222,0,2.482,1.112,4.281,3.3,4.281,1.713,0,3.082-1.584,3.768-2.783.514-.9.769-2.012.769-4.666Zm6.763,9.075a4.764,4.764,0,0,1-3.595,2.054c-2.484,0-3.126-2.439-3.169-3.852h-.086c-.727,1.241-2.568,3.852-5.992,3.852a5.092,5.092,0,0,1-5.18-5.264c0-5.909,8.946-6.636,11.258-6.807V35.094c0-2.739,0-4.109-2.74-4.109-2.1,0-4.109.728-4.109,1.926,0,.813.943.813.943,2.14a1.817,1.817,0,0,1-2.014,1.8c-1.2,0-1.839-.813-1.839-2.14,0-2.311,2.91-4.665,7.277-4.665a11.408,11.408,0,0,1,3.852.727c1.327.686,1.882.856,1.882,3.938V45.754c0,1.412,0,3.724,1.114,3.724a2.514,2.514,0,0,0,1.8-.985l.6.557Z" transform="translate(-42.344 -5.396)"/><path class="a" d="M272.171,49.392h3.082V31.756h-3.467v-.942h3.082a19.032,19.032,0,0,0,3.468-.342v5.264h.086c.256-1.325,2.14-5.692,5.777-5.692a2.745,2.745,0,0,1,2.954,2.653,2.139,2.139,0,0,1-1.883,2.312,1.739,1.739,0,0,1-1.97-1.882c0-.43.172-.772.172-1.028,0-.342-.172-.427-.514-.427-2.354,0-4.453,5.094-4.453,9.117v8.6h3.211v.942h-9.545v-.942" transform="translate(-46.212 -5.396)"/><path class="a" d="M24.379,51.752a.137.137,0,0,0-.064-.085A15.291,15.291,0,0,1,20.556,48.6a.137.137,0,0,0-.193-.012l-11.3,9.852a.135.135,0,0,0-.046.095.133.133,0,0,0,.035.1A30.375,30.375,0,0,0,16.5,64.739a.14.14,0,0,0,.069.018.133.133,0,0,0,.117-.066l7.681-12.835a.139.139,0,0,0,.015-.1" transform="translate(-1.533 -8.543)"/><g transform="translate(0 5.983)"><path class="a" d="M17.275,37.84a.137.137,0,0,0-.012-.1,15.433,15.433,0,0,1-1.517-3.754.138.138,0,0,0-.166-.1L1.015,37.515a.138.138,0,0,0-.1.166,29.989,29.989,0,0,0,2.976,7.5.139.139,0,0,0,.12.071.133.133,0,0,0,.066-.018l13.133-7.308a.135.135,0,0,0,.066-.083" transform="translate(-0.154 -6.221)"/><path class="a" d="M15.016,26.283a.134.134,0,0,0,.137-.127,15.466,15.466,0,0,1,.65-3.349.14.14,0,0,0-.09-.173l-14.178-4.5a.135.135,0,0,0-.172.087A29.965,29.965,0,0,0,0,24.826a.144.144,0,0,0,.032.1.135.135,0,0,0,.093.05L15,26.282h.012" transform="translate(0 -3.543)"/><path class="a" d="M20.259,14.3a.137.137,0,0,0,.09.034h.009a.137.137,0,0,0,.094-.048,15.275,15.275,0,0,1,2.108-2,.143.143,0,0,0,.052-.094.136.136,0,0,0-.029-.1C20.2,9.082,14.634,2.066,13.482.607A.138.138,0,0,0,13.29.583,30.729,30.729,0,0,0,9.148,4.426a.137.137,0,0,0-.034.1.142.142,0,0,0,.046.1l11.1,9.676" transform="translate(-1.549 -0.555)"/><path class="a" d="M34.45,47.6a15.289,15.289,0,0,1-5.594-1.047.14.14,0,0,0-.178.077L23.083,60.469a.135.135,0,0,0,0,.106.143.143,0,0,0,.076.074A30.16,30.16,0,0,0,34.12,62.692c.112,0,.226,0,.334,0a.136.136,0,0,0,.132-.136V47.739a.136.136,0,0,0-.136-.137" transform="translate(-3.923 -8.375)"/></g><path class="a" d="M49.868,20.741a.142.142,0,0,0,.1.043h0a.142.142,0,0,0,.1-.04L60.2,10.807a.137.137,0,0,0,0-.193A31.151,31.151,0,0,0,57.2,7.9a.143.143,0,0,0-.1-.029.136.136,0,0,0-.091.052L48.29,19.135a.138.138,0,0,0,.023.192,15.129,15.129,0,0,1,1.555,1.414" transform="translate(-8.206 -1.625)"/><path class="a" d="M69.788,33.545a.136.136,0,0,0-.147-.125l-14.2,1.1a.134.134,0,0,0-.125.145c.026.364.038.73.038,1.088,0,.216,0,.442-.017.713a.137.137,0,0,0,.037.1.139.139,0,0,0,.095.044l14.256.562h0a.134.134,0,0,0,.093-.037.138.138,0,0,0,.043-.1c.014-.351.02-.705.02-1.054,0-.817-.032-1.637-.1-2.441" transform="translate(-9.405 -5.97)"/><g transform="translate(27.898)"><path class="a" d="M17.767,48.405a.137.137,0,0,0-.193.012,15.557,15.557,0,0,1-1.088,1.128.138.138,0,0,0-.007.193l9.911,10.623a.129.129,0,0,0,.1.043h0a.134.134,0,0,0,.1-.037,30.771,30.771,0,0,0,2.111-2.245.136.136,0,0,0-.015-.192L17.767,48.405" transform="translate(-3.304 -8.512)"/><path class="a" d="M5.627.414a44.57,44.57,0,0,0-4.86,0A.175.175,0,0,0,.654.457a.131.131,0,0,0-.041.1L1.923,14.764a.158.158,0,0,0,.177.126,21.878,21.878,0,0,1,2.523.006.181.181,0,0,0,.122-.034v0a.132.132,0,0,0,.054-.093L5.78.56A.149.149,0,0,0,5.627.414" transform="translate(-0.613 -0.347)"/></g><path class="a" d="M294.909,31.46v.948h.919a.7.7,0,0,0,.435-.116.447.447,0,0,0,.154-.376.391.391,0,0,0-.163-.339.881.881,0,0,0-.51-.117Zm-.372,2.564V31.117h1.287a1.172,1.172,0,0,1,.755.2.73.73,0,0,1,.246.6.754.754,0,0,1-.222.578,1.115,1.115,0,0,1-.686.25l.871,1.273h-.426l-.818-1.273h-.636v1.273Zm-1.17-1.427a2.128,2.128,0,1,0,.622-1.5A2.06,2.06,0,0,0,293.367,32.6Zm2.128,2.554A2.555,2.555,0,1,1,297.3,34.4a2.458,2.458,0,0,1-1.805.748Z" transform="translate(-49.809 -5.396)"/></g></g></svg>